<svg height="511pt" viewBox="0 0 511 511.99834" width="511pt" xmlns="http://www.w3.org/2000/svg"><path d="m340.105469 71.597656v-64.128906l-72.148438 64.128906c-48.898437 0-95.394531 0-144.292969 0l-72.148437-64.128906v64.128906c0 408.839844 64.128906 408.839844 112.230469 432.886719h64.128906c48.097656-24.046875 112.230469-24.046875 112.230469-432.886719zm0 0" fill="#d0e05e"/><path d="m255.332031 488.453125h-64.132812c-48.097657-24.050781-112.226563-24.050781-112.226563-432.886719v-23.695312l-27.457031-24.402344v64.128906c0 408.839844 64.128906 408.839844 112.230469 432.886719h64.128906c12.609375-6.304687 26.320312-10.960937 39.6875-21.757813-4.15625 1.90625-8.25 3.734376-12.230469 5.726563zm0 0" fill="#c4d936"/><path d="m259.941406 416.304688c0-61.984376-28.710937-112.230469-64.132812-112.230469-35.417969 0-64.128906 50.246093-64.128906 112.230469v71.949218c10.898437 7.09375 21.84375 11.121094 32.066406 16.230469h64.128906c10.222656-5.109375 21.167969-9.136719 32.066406-16.230469zm0 0" fill="#f3f7d7"/><path d="m191.199219 488.453125c-18.984375-9.496094-40.46875-15.246094-59.519531-43.871094v43.671875c10.898437 7.09375 21.84375 11.121094 32.066406 16.230469h64.128906c10.222656-5.109375 21.167969-9.136719 32.066406-16.230469v-2.023437c-1.550781.722656-3.089844 1.460937-4.609375 2.222656zm0 0" fill="#e8f0af"/><path d="m332.089844 263.992188c72.339844 6.027343 72.148437 128.261718-24.050782 224.460937 0 0-72.148437-232.476563 24.050782-224.460937zm0 0" fill="#f6a26d"/><path d="m351.558594 269.152344c27.433594 37.96875 13.417968 120.261718-51.132813 191.761718 4.28125 16.789063 7.613281 27.535157 7.613281 27.535157 86.589844-86.585938 95.382813-194.253907 43.519532-219.296875zm0 0" fill="#f5985d"/><path d="m59.53125 263.992188c-72.339844 6.027343-72.148438 128.261718 24.050781 224.460937 0 0 72.144531-232.476563-24.050781-224.460937zm0 0" fill="#f6a26d"/><path d="m46.058594 266.714844c-58.40625 19.488281-52.265625 131.949218 37.523437 221.734375 0 0 3.816407-12.304688 8.523438-31.148438-63.175781-72.21875-75.449219-154.402343-46.046875-190.585937zm0 0" fill="#f5985d"/><path d="m155.726562 175.8125 40.082032 88.179688 40.082031-88.179688-40.082031-48.097656zm0 0" fill="#f7ad7d"/><path d="m195.808594 135.730469c0 44.273437-35.890625 80.164062-80.164063 80.164062-44.273437 0-80.164062-35.890625-80.164062-80.164062 0-44.273438 35.890625-80.164063 80.164062-80.164063 44.273438 0 80.164063 35.890625 80.164063 80.164063zm0 0" fill="#ffdb7e"/><path d="m163.746094 135.730469c0 26.5625-21.535156 48.097656-48.101563 48.097656-26.5625 0-48.097656-21.535156-48.097656-48.097656s21.535156-48.097657 48.097656-48.097657c26.566407 0 48.101563 21.535157 48.101563 48.097657zm0 0" fill="#f4f0f9"/><path d="m135.085938 167.796875c-26.5625 0-48.097657-21.535156-48.097657-48.097656 0-10.363281 3.285157-19.949219 8.859375-27.800781-16.683594 7.550781-28.300781 24.328124-28.300781 43.832031 0 26.5625 21.535156 48.097656 48.101563 48.097656 16.203124 0 30.523437-8.019531 39.238281-20.300781-6.042969 2.734375-12.738281 4.269531-19.800781 4.269531zm0 0" fill="#e8e2f3"/><path d="m356.136719 135.730469c0 44.273437-35.890625 80.164062-80.164063 80.164062-44.273437 0-80.164062-35.890625-80.164062-80.164062 0-44.273438 35.890625-80.164063 80.164062-80.164063 44.273438 0 80.164063 35.890625 80.164063 80.164063zm0 0" fill="#ffdb7e"/><path d="m324.074219 135.730469c0 26.5625-21.535157 48.097656-48.101563 48.097656-26.5625 0-48.097656-21.535156-48.097656-48.097656s21.535156-48.097657 48.097656-48.097657c26.566406 0 48.101563 21.535157 48.101563 48.097657zm0 0" fill="#f4f0f9"/><path d="m295.414062 167.796875c-26.5625 0-48.097656-21.535156-48.097656-48.097656 0-10.363281 3.285156-19.949219 8.859375-27.800781-16.683593 7.550781-28.296875 24.328124-28.296875 43.832031 0 26.5625 21.53125 48.097656 48.097656 48.097656 16.203126 0 30.523438-8.019531 39.238282-20.300781-6.042969 2.734375-12.738282 4.269531-19.800782 4.269531zm0 0" fill="#e8e2f3"/><path d="m341.667969 257.84375c1.609375-21.28125 2.910156-44.378906 3.863281-68.800781 11.359375-14.78125 18.121094-33.273438 18.121094-53.3125 0-18.910157-6.015625-36.441407-16.238282-50.78125.117188-.523438.1875-1.070313.1875-1.632813.011719-3.867187.019532-75.847656.019532-75.847656 0-6.34375-7.757813-9.84375-12.507813-5.617188l-52.277343 46.464844c-2.265626-.175781-4.550782-.265625-6.863282-.265625-18.894531 0-36.414062 6.007813-50.742187 16.214844-.527344-.117187-1.070313-.183594-1.632813-.183594h-54.777344c-.773437 0-1.519531.117188-2.21875.335938-14.371093-10.300781-31.96875-16.367188-50.957031-16.367188-2.324219 0-4.632812.09375-6.914062.269531-.167969-.183593-.351563-.363281-.542969-.535156l-51.679688-45.933594c-4.753906-4.226562-12.507812-.730468-12.507812 5.613282 0 0 .003906 71.980468.019531 75.847656 0 .5625.066407 1.109375.1875 1.636719-10.222656 14.339843-16.238281 31.871093-16.238281 50.78125 0 20.039062 6.761719 38.527343 18.121094 53.3125.949218 24.410156 2.25 47.515625 3.863281 68.800781-20.484375 4.5-35.816406 18.382812-43.671875 39.828125-8.984375 24.53125-7.457031 56.933594 4.300781 91.242187 12.675781 36.988282 36.082031 73.246094 67.6875 104.851563 3.925781 3.929687 10.847657 2.207031 12.488281-3.085937.0625-.203126 3.160157-10.238282 7.195313-25.917969 16.980469 25.550781 35.871094 34.1875 52.839844 41.929687 3.339843 1.527344 6.496093 2.964844 9.59375 4.511719 1.042969.523437 2.191406.796875 3.359375.796875h64.132812c1.164063 0 2.316406-.273438 3.359375-.796875 3.09375-1.546875 6.25-2.984375 9.589844-4.511719 16.972656-7.746094 35.863281-16.375 52.839844-41.925781 4.039062 15.675781 7.132812 25.710937 7.195312 25.914063 1.644531 5.292968 8.5625 7.015624 12.492188 3.085937 31.605469-31.605469 55.007812-67.863281 67.6875-104.851563 11.753906-34.308593 13.28125-66.710937 4.296875-91.242187-7.855469-21.445313-23.1875-35.324219-43.671875-39.828125zm-9.078125-233.640625v44.636719c-8.996094-7.628906-19.542969-13.476563-31.09375-16.996094zm16.035156 111.527344c0 40.058593-32.589844 72.648437-72.652344 72.648437-40.058594 0-72.648437-32.589844-72.648437-72.648437 0-40.058594 32.589843-72.648438 72.648437-72.648438 40.0625 0 72.652344 32.589844 72.652344 72.648438zm-132.054688 64.425781-20.761718 45.675781-20.757813-45.675781c8.753907-8.074219 15.859375-17.90625 20.757813-28.929688 4.902344 11.023438 12.011718 20.855469 20.761718 28.929688zm-20.761718-99.921875c-3.414063-7.683594-7.902344-14.785156-13.269532-21.121094h26.542969c-5.367187 6.335938-9.855469 13.4375-13.273437 21.121094zm-105.683594-48.390625c-11.550781 3.519531-22.097656 9.367188-31.09375 16.992188v-44.632813zm25.519531 11.238281c40.0625 0 72.652344 32.589844 72.652344 72.648438 0 40.058593-32.589844 72.648437-72.652344 72.648437-40.058593 0-72.648437-32.589844-72.648437-72.648437 0-40.058594 32.59375-72.648438 72.648437-72.648438zm-35.617187 410.816407c-57.480469-62.425782-73.820313-132.316407-59.632813-171.054688 4.835938-13.199219 15.65625-29.351562 39.761719-31.363281 12.496094-1.042969 21.832031 2.507812 28.527344 10.847656 27.683594 34.46875 5.691406 140.398437-8.65625 191.570313zm187.429687-1.085938v-11.917969c0-4.148437-3.363281-7.515625-7.515625-7.515625-4.148437 0-7.515625 3.367188-7.515625 7.515625v23.160157c-5.941406 3.53125-11.921875 6.265624-17.839843 8.964843-2.78125 1.269531-5.644532 2.578125-8.460938 3.949219h-60.628906c-2.816406-1.371094-5.679688-2.679688-8.460938-3.949219-5.917968-2.699219-11.898437-5.433593-17.839844-8.964843v-67.75c0-56.761719 25.925782-104.714844 56.617188-104.714844 30.6875 0 56.613281 47.953125 56.613281 104.714844v8.015624c0 4.148438 3.367188 7.515626 7.515625 7.515626 4.152344 0 7.515625-3.367188 7.515625-7.515626v-8.015624c0-31.265626-7.019531-60.773438-19.773437-83.089844-13.507813-23.636719-31.929688-36.65625-51.871094-36.65625-19.945312 0-38.367188 13.019531-51.875 36.65625-12.75 22.316406-19.773438 51.824218-19.773438 83.089844v56.507812c-7.300781-6.863281-14.398437-16.050781-21.09375-29.074219 2.847657-12.445312 5.742188-26.523437 8.140626-41.136719 10.515624-64.027343 6.878906-107.660156-10.804688-129.683593-8.765625-10.921875-20.691406-16.492188-35.496094-16.632813-1.21875-16.144531-2.257812-33.355468-3.097656-51.398437 14.867188 11.601562 33.558594 18.519531 53.835938 18.519531 17.355468 0 33.554687-5.070312 47.183593-13.808594l26.136719 57.503906c2.617188 5.753907 11.070312 5.753907 13.683594 0l26.136718-57.503906c13.632813 8.738282 29.828126 13.808594 47.1875 13.808594 20.273438 0 38.960938-6.917969 53.832032-18.519531-.839844 18.046875-1.875 35.253906-3.09375 51.394531-14.804688.144531-26.730469 5.714844-35.5 16.636719-17.679688 22.023437-21.316406 65.65625-10.800782 129.679687 2.398438 14.613282 5.292969 28.691406 8.140626 41.136719-6.695313 13.027344-13.796876 22.210937-21.097657 29.078125zm44.132813 1.085938c-14.351563-51.160157-36.351563-157.074219-8.65625-191.566407 5.941406-7.398437 13.953125-11.027343 24.40625-11.027343 1.335937 0 2.710937.058593 4.125.175781 24.105468 2.007812 34.925781 18.164062 39.761718 31.363281 14.191407 38.738281-2.15625 108.628906-59.636718 171.054688zm0 0"/><path d="m319.464844 296.558594c-4.152344 0-7.515625 3.367187-7.515625 7.515625v16.035156c0 4.148437 3.363281 7.511719 7.515625 7.511719 4.148437 0 7.515625-3.363282 7.515625-7.511719v-16.035156c0-4.152344-3.367188-7.515625-7.515625-7.515625zm0 0"/><path d="m351.527344 312.59375c-4.148438 0-7.511719 3.363281-7.511719 7.515625v8.015625c0 4.148438 3.363281 7.515625 7.511719 7.515625 4.152344 0 7.515625-3.367187 7.515625-7.515625v-8.015625c0-4.152344-3.363281-7.515625-7.515625-7.515625zm0 0"/><path d="m335.496094 344.65625c-4.148438 0-7.515625 3.367188-7.515625 7.515625v16.035156c0 4.148438 3.367187 7.515625 7.515625 7.515625 4.152344 0 7.515625-3.367187 7.515625-7.515625v-16.035156c0-4.148437-3.363281-7.515625-7.515625-7.515625zm0 0"/><path d="m311.445312 368.707031c-4.148437 0-7.511718 3.363281-7.511718 7.515625v24.050782c0 4.148437 3.363281 7.511718 7.511718 7.511718 4.152344 0 7.515626-3.363281 7.515626-7.511718v-24.050782c0-4.152344-3.363282-7.515625-7.515626-7.515625zm0 0"/><path d="m335.496094 400.773438c-4.148438 0-7.515625 3.363281-7.515625 7.515624v16.03125c0 4.152344 3.367187 7.515626 7.515625 7.515626 4.152344 0 7.515625-3.363282 7.515625-7.515626v-16.03125c0-4.152343-3.363281-7.515624-7.515625-7.515624zm0 0"/><path d="m78.46875 312.089844v-16.03125c0-4.152344-3.363281-7.515625-7.515625-7.515625-4.148437 0-7.515625 3.363281-7.515625 7.515625v16.03125c0 4.152344 3.367188 7.515625 7.515625 7.515625 4.152344 0 7.515625-3.363281 7.515625-7.515625zm0 0"/><path d="m38.890625 304.574219c-4.152344 0-7.515625 3.367187-7.515625 7.515625v8.019531c0 4.148437 3.363281 7.511719 7.515625 7.511719 4.148437 0 7.515625-3.363282 7.515625-7.511719v-8.019531c0-4.148438-3.367188-7.515625-7.515625-7.515625zm0 0"/><path d="m62.4375 368.207031v-24.050781c0-4.148438-3.363281-7.515625-7.515625-7.515625-4.148437 0-7.515625 3.367187-7.515625 7.515625v24.050781c0 4.148438 3.367188 7.515625 7.515625 7.515625 4.152344 0 7.515625-3.367187 7.515625-7.515625zm0 0"/><path d="m78.972656 352.675781c-4.152344 0-7.515625 3.363281-7.515625 7.515625v16.03125c0 4.148438 3.363281 7.515625 7.515625 7.515625 4.148438 0 7.515625-3.367187 7.515625-7.515625v-16.03125c0-4.152344-3.367187-7.515625-7.515625-7.515625zm0 0"/><path d="m62.9375 400.773438c-4.148438 0-7.515625 3.363281-7.515625 7.515624v8.015626c0 4.148437 3.367187 7.515624 7.515625 7.515624 4.152344 0 7.515625-3.367187 7.515625-7.515624v-8.015626c0-4.152343-3.363281-7.515624-7.515625-7.515624zm0 0"/><path d="m115.644531 191.34375c30.667969 0 55.617188-24.949219 55.617188-55.613281 0-30.667969-24.949219-55.613281-55.617188-55.613281-30.664062 0-55.613281 24.945312-55.613281 55.613281 0 30.664062 24.949219 55.613281 55.613281 55.613281zm0-96.195312c22.378907 0 40.585938 18.203124 40.585938 40.582031 0 22.378906-18.207031 40.582031-40.585938 40.582031-22.375 0-40.582031-18.203125-40.582031-40.582031 0-22.378907 18.207031-40.582031 40.582031-40.582031zm0 0"/><path d="m99.613281 143.246094h32.066407c4.148437 0 7.515624-3.367188 7.515624-7.515625 0-4.152344-3.367187-7.515625-7.515624-7.515625h-32.066407c-4.148437 0-7.515625 3.363281-7.515625 7.515625 0 4.148437 3.367188 7.515625 7.515625 7.515625zm0 0"/><path d="m275.972656 191.34375c30.667969 0 55.617188-24.949219 55.617188-55.613281 0-30.667969-24.949219-55.613281-55.617188-55.613281-30.664062 0-55.613281 24.945312-55.613281 55.613281 0 30.664062 24.949219 55.613281 55.613281 55.613281zm0-96.195312c22.378906 0 40.585938 18.203124 40.585938 40.582031 0 22.378906-18.207032 40.582031-40.585938 40.582031-22.375 0-40.582031-18.203125-40.582031-40.582031 0-22.378907 18.207031-40.582031 40.582031-40.582031zm0 0"/><path d="m259.941406 143.246094h32.066406c4.148438 0 7.515626-3.367188 7.515626-7.515625 0-4.152344-3.367188-7.515625-7.515626-7.515625h-32.066406c-4.148437 0-7.515625 3.363281-7.515625 7.515625 0 4.148437 3.367188 7.515625 7.515625 7.515625zm0 0"/><path d="m391.609375 232.429688h-16.429687l22.300781-27.875c3.863281-4.828126.296875-12.207032-5.871094-12.207032h-32.0625c-4.152344 0-7.515625 3.363282-7.515625 7.515625 0 4.148438 3.363281 7.511719 7.515625 7.511719h16.429687l-22.300781 27.875c-3.863281 4.828125-.292969 12.207031 5.871094 12.207031h32.0625c4.152344 0 7.515625-3.363281 7.515625-7.511719 0-4.152343-3.363281-7.515624-7.515625-7.515624zm0 0"/><path d="m447.726562 200.363281h-16.429687l22.296875-27.871093c3.863281-4.832032.296875-12.210938-5.867188-12.210938h-32.066406c-4.148437 0-7.515625 3.363281-7.515625 7.515625 0 4.148437 3.367188 7.515625 7.515625 7.515625h16.429688l-22.296875 27.871094c-3.867188 4.828125-.296875 12.210937 5.867187 12.210937h32.066406c4.148438 0 7.515626-3.367187 7.515626-7.515625 0-4.152344-3.367188-7.515625-7.515626-7.515625zm0 0"/><path d="m503.839844 168.296875h-16.429688l22.296875-27.871094c3.867188-4.832031.296875-12.210937-5.867187-12.210937h-32.066406c-4.148438 0-7.511719 3.363281-7.511719 7.515625 0 4.148437 3.363281 7.515625 7.511719 7.515625h16.429687l-22.296875 27.871094c-3.863281 4.832031-.296875 12.210937 5.867188 12.210937h32.066406c4.152344 0 7.515625-3.367187 7.515625-7.515625 0-4.152344-3.363281-7.515625-7.515625-7.515625zm0 0"/></svg>