<?xml version="1.0"?>
<svg xmlns="http://www.w3.org/2000/svg" height="512px" viewBox="0 0 480 480" width="512px" class=""><g><path d="m472 360c0 61.855469-50.144531 112-112 112s-112-50.144531-112-112 50.144531-112 112-112 112 50.144531 112 112zm0 0" fill="#78b9eb" data-original="#78B9EB" class=""/><g fill="#1a6fb0"><path d="m360 240c-66.273438 0-120 53.726562-120 120s53.726562 120 120 120 120-53.726562 120-120c-.078125-66.242188-53.757812-119.921875-120-120zm0 224c-57.4375 0-104-46.5625-104-104s46.5625-104 104-104 104 46.5625 104 104c-.054688 57.414062-46.585938 103.945312-104 104zm0 0" data-original="#000000" class="active-path" style="fill:#F7F7F9" data-old_color="#EFEFF4"/><path d="m368 280h-16v72h-72v16h72v64h16v-64h72v-16h-72zm0 0" data-original="#000000" class="active-path" style="fill:#F7F7F9" data-old_color="#EFEFF4"/><path d="m456 0h-176c-13.253906 0-24 10.746094-24 24v176c0 13.253906 10.746094 24 24 24h176c13.253906 0 24-10.746094 24-24v-176c0-13.253906-10.746094-24-24-24zm8 200c0 4.417969-3.582031 8-8 8h-176c-4.417969 0-8-3.582031-8-8v-176c0-4.417969 3.582031-8 8-8h176c4.417969 0 8 3.582031 8 8zm0 0" data-original="#000000" class="active-path" style="fill:#F7F7F9" data-old_color="#EFEFF4"/><path d="m200 0h-176c-13.253906 0-24 10.746094-24 24v176c0 13.253906 10.746094 24 24 24h176c13.253906 0 24-10.746094 24-24v-176c0-13.253906-10.746094-24-24-24zm8 200c0 4.417969-3.582031 8-8 8h-176c-4.417969 0-8-3.582031-8-8v-176c0-4.417969 3.582031-8 8-8h176c4.417969 0 8 3.582031 8 8zm0 0" data-original="#000000" class="active-path" style="fill:#F7F7F9" data-old_color="#EFEFF4"/><path d="m200 256h-176c-13.253906 0-24 10.746094-24 24v176c0 13.253906 10.746094 24 24 24h176c13.253906 0 24-10.746094 24-24v-176c0-13.253906-10.746094-24-24-24zm8 200c0 4.417969-3.582031 8-8 8h-176c-4.417969 0-8-3.582031-8-8v-176c0-4.417969 3.582031-8 8-8h176c4.417969 0 8 3.582031 8 8zm0 0" data-original="#000000" class="active-path" style="fill:#F7F7F9" data-old_color="#EFEFF4"/></g></g> </svg>
