<?xml version="1.0"?>
<svg xmlns="http://www.w3.org/2000/svg" height="512px" viewBox="-73 0 511 512" width="512px"><path d="m106.476562 351.605469c-.003906.003906-.003906.007812-.007812.007812.007812-.003906.023438-.023437.046875-.050781-.019531.019531-.03125.035156-.039063.042969zm0 0" fill="#FFFFFF"/><path d="m106.652344 351.421875c-.007813.007813-.019532.019531-.027344.027344-.015625.015625-.027344.03125-.039062.042969.03125-.035157.070312-.074219.109374-.113282-.015624.015625-.03125.027344-.042968.042969zm0 0" fill="#FFFFFF"/><path d="m106.832031 351.234375c-.019531.023437-.039062.039063-.054687.058594.03125-.035157.058594-.0625.078125-.082031-.007813.007812-.015625.015624-.023438.023437zm0 0" fill="#FFFFFF"/><path d="m345.683594 403.5c-2.128906-3.605469-6.761719-4.796875-10.363282-2.675781-3.601562 2.128906-4.804687 6.761719-2.675781 10.363281 11.386719 19.316406 17.410157 41.449219 17.410157 63.984375 0 11.960937-9.726563 21.691406-21.6875 21.691406h-34.894532v-49.902343c0-4.183594-3.386718-7.570313-7.566406-7.570313-4.183594 0-7.570312 3.386719-7.570312 7.570313v49.902343h-55.515626l-13.773437-43.054687c4.296875-3.382813 7.0625-8.621094 7.0625-14.503906v-6.539063l5.015625 3.25c11.578125 7.5 26.742188 1.171875 29.8125-8.253906l21.902344-68.972657c15.882812 6.671876 30.367187 16.664063 42.648437 29.632813 2.878907 3.035156 7.671875 3.167969 10.699219.292969 3.039062-2.878906 3.167969-7.660156.292969-10.699219-15.773438-16.652344-34.800781-28.933594-55.71875-36.242187l-26.433594-27.570313c18.277344-14.207031 36.511719-35.667969 42.621094-59 20.878906-4.160156 36.664062-22.628906 36.664062-44.710937 0-21.261719-14.625-39.167969-34.355469-44.183594v-20.707032h7.167969c7.253907 0 13.160157-5.894531 13.160157-13.152343v-79.597657c0-13.703124-7.359376-25.722656-18.328126-32.3125v-7.429687c0-7.355469-6.84375-13.109375-15.59375-13.109375h-160.355468c-17.488282 0-34.03125 4.753906-46.574219 13.390625-13.414063 9.234375-20.800781 21.789063-20.800781 35.355469v82.039062c0 11.0625 10.605468 19.839844 24.503906 20.648438v16.085937c-17.671875 6.269531-30.359375 23.164063-30.359375 42.964844 0 20.558594 13.667969 37.964844 32.398437 43.636719 1.25 5.089844 3.066407 10.175781 5.449219 15.230468 1.785157 3.785157 6.289063 5.410157 10.074219 3.632813 3.78125-1.785156 5.40625-6.296875 3.621094-10.082031-9.339844-19.804688-4.855469-25.691406-6.046875-82.867188 0-25.085937 0-1.144531 0-28.53125 3.449219-.515625 71.734375 5.550782 140.183593-41.882812.886719 19.992187 17.417969 35.980468 37.632813 35.980468h8.730469c0 100.488282 1.101562 97.558594-3.066406 109.945313-6.53125 19.285156-22.558594 36.632813-39.734376 49.601563-.011718 0-.011718 0-.011718 0-6.734375 5.140624-15.277344 10.636718-23.503906 14.835937-17.902344 9.199219-26.851563 8.839844-26.957032 8.863281-14.914062 0-49.472656-18.25-71.472656-42.804687-2.796875-3.117188-7.578125-3.378907-10.6875-.582031-3.117188 2.785156-3.382812 7.566406-.585938 10.6875 6.488282 7.234374 13.867188 13.914062 21.558594 19.839843l-24.867187 25.9375c-54.871094 19.40625-94.292969 71.804688-94.292969 133.246094 0 20.308594 16.519531 36.828125 36.828125 36.828125h291.039063c20.304687 0 36.828124-16.519531 36.828124-36.828125 0-25.238281-6.742187-50.027344-19.511718-71.671875zm-273.246094-166.664062c-9.09375-5.257813-15.21875-15.097657-15.21875-26.351563s6.125-21.09375 15.21875-26.351563zm236.039062-26.34375c0 12.828124-7.972656 23.828124-19.226562 28.300781.015625-.632813.007812 2.492187.007812-56.597657 11.253907 4.472657 19.21875 15.472657 19.21875 28.296876zm-215.15625-74.125c-19.851562 0-19.371093.046874-20.882812-.113282-5.863281-.613281-9.367188-3.703125-9.367188-5.46875v-82.039062c0-18.21875 23.929688-33.609375 52.238282-33.609375 167.949218.011719 160.261718-.019531 160.8125.023437 0 .238282 0 8.183594 0 8.082032 0 35.585937-77.253906 113.898437-182.800782 113.125zm172.070313-5.90625c-12.433594 0-22.535156-10.101563-22.535156-22.535157v-9.75c18.484375-15.308593 38.859375-37.496093 45.949219-60.21875 3.511718 3.976563 5.640624 9.195313 5.640624 14.894531v77.609376c-10.070312 0-23.261718 0-29.054687 0zm-31.578125 194.640624c9.925781 10.355469 15.753906 16.4375 25.414062 26.511719-.207031.652344-22.121093 69.707031-22.425781 70.667969-1.449219 1.914062-4.886719 2.664062-7.449219 1.027344-5.292968-3.429688-37.121093-24.046875-38.652343-25.039063 1.53125-2.601562 43.011719-72.992187 43.113281-73.167969zm-32.839844 97.855469v16.347657c0 1.71875-1.445312 3.3125-3.308594 3.3125h-29.632812c-1.867188 0-3.308594-1.59375-3.308594-3.3125v-16.347657l18.125-11.738281zm9.0625-87.320312c-6.179687 10.476562-6.605468 11.183593-27.1875 46.132812-21.296875-36.15625-20.5625-34.902343-25.777344-43.738281 19.78125 8.054688 29.933594 8.503906 52.964844-2.394531zm-103.488281 15.894531c.027344-.03125.054687-.054688.078125-.078125.007812-.011719.015625-.019531.027344-.03125.023437-.023437.046875-.046875.066406-.066406-.011719.007812-.019531.015625-.023438.023437.023438-.027344.050782-.054687.082032-.085937-.011719.007812-.019532.019531-.027344.027343.035156-.035156.0625-.0625.082031-.082031.007813-.011719.019531-.023437.03125-.035156-.003906.003906-.003906.007813-.007812.007813.011719-.007813.015625-.015626.019531-.019532 1.355469-1.414062 6.722656-7.015625 25.007812-26.089844.953126 1.621094 1.695313 2.878907 2.265626 3.84375 1.277343 2.167969 9.371093 15.90625 40.847656 69.324219-42.621094 27.609375-40.195313 26.539063-43.328125 25.746094-1.167969-.292969-2.148438-.90625-2.773438-1.734375 0 0 0 0 0-.003906-.03125-.101563-.066406-.203125-.035156-.101563-.832031-2.605469-1.457031-4.554687-1.910156-5.976562-2.613281-8.253907-8.488281-26.792969-20.480469-64.585938-.003906.007813-.003906.003907.007812-.003906.015626-.019531.03125-.035156.046876-.054687 0 .003906-.003907.007812-.007813.011718.019531-.019531.039063-.042968.070313-.074218-.015626.015624-.027344.027343-.039063.039062zm37.453125 145.332031h-56.640625v-49.902343c0-4.183594-3.390625-7.570313-7.570313-7.570313-4.179687 0-7.570312 3.386719-7.570312 7.570313v49.902343h-34.890625c-11.960937 0-21.691406-9.730469-21.691406-21.691406 0-52.226563 31.902343-97.148437 77.246093-116.28125 23.21875 72.929687 21.746094 68.90625 22.445313 70.210937 5.585937 10.191407 19.351563 13.320313 29.238281 6.914063l5.015625-3.25c.507813 3.054687-2.429687 14.15625 7.621094 21.457031zm15.835938 0 12.121093-39.109375h22.457031l12.511719 39.109375zm0 0" fill="#FFFFFF"/><path d="m106.875 351.1875c.007812-.003906.007812-.003906 0 0zm0 0" fill="#FFFFFF"/><path d="m222.578125 210.707031c0 6.601563 5.347656 11.949219 11.949219 11.949219 6.59375 0 11.941406-5.351562 11.941406-11.949219 0-6.589843-5.347656-11.941406-11.941406-11.941406-6.589844 0-11.949219 5.34375-11.949219 11.941406zm0 0" fill="#FFFFFF"/><path d="m253.695312 180.347656c1.25.789063 2.644532 1.160156 4.027344 1.160156 7.347656 0 10.578125-9.625 4.035156-13.976562-16.117187-10.132812-41.984374-5.125-44.878906-4.519531-4.089844.847656-6.703125 4.851562-5.863281 8.941406.847656 4.085937 4.851563 6.71875 8.949219 5.871094 4.867187-.996094 17.046875-2.472657 26.574218-.261719 2.664063.605469 5.125 1.503906 7.15625 2.785156zm0 0" fill="#FFFFFF"/><path d="m131.164062 198.765625c-6.589843 0-11.9375 5.351563-11.9375 11.941406 0 7.046875 6.121094 12.386719 12.371094 11.9375 6.398438-.222656 11.515625-5.480469 11.515625-11.9375 0-6.398437-5.046875-11.628906-11.382812-11.921875-.191407-.019531-.375-.019531-.566407-.019531zm0 0" fill="#FFFFFF"/><path d="m148.816406 163.011719c-2.898437-.605469-28.773437-5.613281-44.882812 4.519531-6.550782 4.355469-3.296875 13.976562 4.039062 13.976562 4.03125 0 3.828125-2.257812 11.191406-3.953124 9.527344-2.203126 21.6875-.726563 26.5625.269531 4.078126.847656 8.09375-1.765625 8.953126-5.863281.847656-4.085938-1.777344-8.101563-5.863282-8.949219zm0 0" fill="#FFFFFF"/><path d="m198.257812 258.007812c0 4.886719-2.28125 9.234376-5.832031 12.0625-9.949219 7.957032-24.988281.886719-24.988281-12.0625 0-4.171874-3.398438-7.570312-7.570312-7.570312-15.941407 0-6.09375 38.121094 22.980468 38.121094 23.839844 0 33.714844-25.164063 29.890625-33.628906-3.335937-7.472657-14.480469-5.003907-14.480469 3.078124zm0 0" fill="#FFFFFF"/></svg>
